# xmcd CD database file
# Copyright (C) 1997 Ti Kan
# 
# Track frame offsets:
#     150
#     16752
#     31531
#     43687
#     53769
#     64565
#     78720
#     89618
#     116994
#     129303
#     142804
#     155709
# 
# Disc length: 2266 seconds
# 
# Revision: 1
# Processed by: cddbd v1.4b41PL1 Copyright (c) Steve Scherf et al.
# Submitted via: DiscPlay 4.0.4
# 
DISCID=9608d80c
DTITLE=Various Artist - Blues Legends - Disc 3
DYEAR=1900
DGENRE=
TTITLE0=Sonny Terry: Drinking In The Blues
TTITLE1=Jimmy Reed: Baby, What Do You Want Me To Do
TTITLE2=B.B.King: Street Sixteen
TTITLE3=Muddy Waters: Rollin' Stone
TTITLE4=Wowlin Wolf: Wang Dang Doodle
TTITLE5=Ray Charles: Going Donw Slow
TTITLE6=Etta James: Dance With Me, Henry
TTITLE7=Mississippi John Hurt: Candy Man
TTITLE8=Screaming Jay Hawkins: I Put A Spell On You
TTITLE9=John Lee Hooker: Dimples
TTITLE10=Robert Pete Willians: Freight Train  Blues
TTITLE11=Lightnin' Hopkins: Short Haired Blues
EXTD=
EXTT0=
EXTT1=
EXTT2=
EXTT3=
EXTT4=
EXTT5=
EXTT6=
EXTT7=
EXTT8=
EXTT9=
EXTT10=
EXTT11=
PLAYORDER=
